<?xml version="1.0" encoding="utf-8"?>
<!-- Generator: Adobe Illustrator 19.0.0, SVG Export Plug-In . SVG Version: 6.00 Build 0)  -->
<svg version="1.1" id="Capa_1" xmlns="http://www.w3.org/2000/svg" xmlns:xlink="http://www.w3.org/1999/xlink" x="0px" y="0px"
	 viewBox="-49 141 512 512" style="enable-background:new -49 141 512 512;" xml:space="preserve">
<style type="text/css">
	.st0{fill:#FFFFFF;}
</style>
<g>
	<path class="st0" d="M207,626c-61.2,0-118.7-23.8-161.9-67.1C1.8,515.7-22,458.2-22,397S1.8,278.3,45.1,235.1
		C88.3,191.8,145.8,168,207,168s118.7,23.8,161.9,67.1C412.2,278.3,436,335.8,436,397s-23.8,118.7-67.1,161.9
		C325.7,602.2,268.2,626,207,626z"/>
	<path d="M207,195c54,0,104.7,21,142.8,59.2S409,343,409,397s-21,104.7-59.2,142.8C311.7,578,261,599,207,599s-104.7-21-142.8-59.2
		C26,501.7,5,451,5,397s21-104.7,59.2-142.8S153,195,207,195 M207,141C65.6,141-49,255.6-49,397S65.6,653,207,653
		c141.4,0,256-114.6,256-256S348.4,141,207,141L207,141z"/>
</g>
<g>
	<circle cx="276" cy="435" r="98"/>
</g>
</svg>
