<?xml version="1.0" encoding="utf-8"?>
<!-- Generator: Adobe Illustrator 19.0.0, SVG Export Plug-In . SVG Version: 6.00 Build 0)  -->
<svg version="1.1" id="Capa_1" xmlns="http://www.w3.org/2000/svg" xmlns:xlink="http://www.w3.org/1999/xlink" x="0px" y="0px"
	 viewBox="-853 281 212 40" style="enable-background:new -853 281 212 40;" xml:space="preserve">
<style type="text/css">
	.st0{clip-path:url(#SVGID_2_);}
</style>
<g>
	<defs>
		<rect id="SVGID_1_" x="-853" y="281" width="212" height="40"/>
	</defs>
	<clipPath id="SVGID_2_">
		<use xlink:href="#SVGID_1_"  style="overflow:visible;"/>
	</clipPath>
	<g class="st0">
		<path d="M-803.9,320.8c-0.6-0.2-1.1-0.5-1.4-0.8l0.5-1c0.3,0.3,0.8,0.5,1.3,0.7c0.5,0.2,1.1,0.3,1.6,0.3c0.7,0,1.3-0.1,1.6-0.4
			c0.4-0.2,0.5-0.6,0.5-1c0-0.3-0.1-0.5-0.3-0.7c-0.2-0.2-0.4-0.3-0.7-0.4c-0.3-0.1-0.7-0.2-1.2-0.3c-0.7-0.2-1.2-0.3-1.6-0.5
			c-0.4-0.2-0.8-0.4-1-0.7c-0.3-0.3-0.4-0.8-0.4-1.3c0-0.5,0.1-0.9,0.4-1.2c0.2-0.4,0.6-0.7,1.1-0.9c0.5-0.2,1.1-0.3,1.9-0.3
			c0.5,0,1,0.1,1.5,0.2c0.5,0.1,0.9,0.3,1.3,0.6l-0.4,1c-0.4-0.2-0.8-0.4-1.2-0.5c-0.4-0.1-0.8-0.2-1.2-0.2c-0.7,0-1.2,0.1-1.6,0.4
			c-0.4,0.3-0.5,0.6-0.5,1c0,0.3,0.1,0.5,0.3,0.7c0.2,0.2,0.5,0.3,0.7,0.4s0.7,0.2,1.2,0.3c0.7,0.2,1.2,0.3,1.6,0.5
			c0.4,0.2,0.7,0.4,1,0.7c0.3,0.3,0.4,0.8,0.4,1.3c0,0.5-0.1,0.9-0.4,1.2c-0.3,0.4-0.6,0.7-1.1,0.9c-0.5,0.2-1.1,0.3-1.9,0.3
			C-802.6,321.1-803.2,321-803.9,320.8z"/>
		<path d="M-789.9,318.8h-4.7l-1,2.2h-1.3l4-8.7h1.2l4,8.7h-1.3L-789.9,318.8z M-790.3,317.8l-1.9-4.2l-1.9,4.2H-790.3z"/>
		<path d="M-777.5,312.3v8.7h-1l-5.3-6.5v6.5h-1.3v-8.7h1l5.3,6.5v-6.5H-777.5z"/>
		<path d="M-768.4,320.8c-0.6-0.2-1.1-0.5-1.4-0.8l0.5-1c0.3,0.3,0.8,0.5,1.3,0.7c0.5,0.2,1.1,0.3,1.6,0.3c0.7,0,1.3-0.1,1.6-0.4
			c0.4-0.2,0.5-0.6,0.5-1c0-0.3-0.1-0.5-0.3-0.7c-0.2-0.2-0.4-0.3-0.7-0.4c-0.3-0.1-0.7-0.2-1.2-0.3c-0.7-0.2-1.2-0.3-1.6-0.5
			c-0.4-0.2-0.8-0.4-1-0.7c-0.3-0.3-0.4-0.8-0.4-1.3c0-0.5,0.1-0.9,0.4-1.2c0.2-0.4,0.6-0.7,1.1-0.9c0.5-0.2,1.1-0.3,1.9-0.3
			c0.5,0,1,0.1,1.5,0.2s0.9,0.3,1.3,0.6l-0.4,1c-0.4-0.2-0.8-0.4-1.2-0.5c-0.4-0.1-0.8-0.2-1.2-0.2c-0.7,0-1.2,0.1-1.6,0.4
			c-0.4,0.3-0.5,0.6-0.5,1c0,0.3,0.1,0.5,0.3,0.7c0.2,0.2,0.5,0.3,0.7,0.4c0.3,0.1,0.7,0.2,1.2,0.3c0.7,0.2,1.2,0.3,1.6,0.5
			c0.4,0.2,0.7,0.4,1,0.7c0.3,0.3,0.4,0.8,0.4,1.3c0,0.5-0.1,0.9-0.4,1.2c-0.3,0.4-0.6,0.7-1.1,0.9c-0.5,0.2-1.1,0.3-1.9,0.3
			C-767.1,321.1-767.8,321-768.4,320.8z"/>
		<path d="M-753.6,319.9v1.1h-6.4v-8.7h6.2v1.1h-4.9v2.7h4.4v1.1h-4.4v2.8H-753.6z"/>
		<path d="M-743.2,317.3c0.3,0.4,0.4,0.8,0.4,1.4c0,0.7-0.3,1.3-0.9,1.7c-0.6,0.4-1.4,0.6-2.5,0.6h-4.2v-8.7h3.9
			c1,0,1.8,0.2,2.3,0.6c0.5,0.4,0.8,0.9,0.8,1.6c0,0.5-0.1,0.8-0.3,1.2c-0.2,0.3-0.5,0.6-0.9,0.8
			C-743.9,316.7-743.5,316.9-743.2,317.3z M-749.1,313.3v2.8h2.6c0.6,0,1.1-0.1,1.5-0.4c0.3-0.2,0.5-0.6,0.5-1c0-0.5-0.2-0.8-0.5-1
			c-0.3-0.2-0.8-0.4-1.5-0.4H-749.1z M-744.6,319.7c0.4-0.2,0.5-0.6,0.5-1.1c0-1-0.7-1.4-2.1-1.4h-2.9v2.9h2.9
			C-745.5,320-745,319.9-744.6,319.7z"/>
		<path d="M-734,318.8h-4.7l-1,2.2h-1.3l4-8.7h1.2l4,8.7h-1.3L-734,318.8z M-734.5,317.8l-1.9-4.2l-1.9,4.2H-734.5z"/>
		<path d="M-728.5,320.8c-0.6-0.2-1.1-0.5-1.4-0.8l0.5-1c0.3,0.3,0.8,0.5,1.3,0.7c0.5,0.2,1.1,0.3,1.6,0.3c0.7,0,1.3-0.1,1.6-0.4
			c0.4-0.2,0.5-0.6,0.5-1c0-0.3-0.1-0.5-0.3-0.7c-0.2-0.2-0.4-0.3-0.7-0.4c-0.3-0.1-0.7-0.2-1.2-0.3c-0.7-0.2-1.2-0.3-1.6-0.5
			c-0.4-0.2-0.8-0.4-1-0.7c-0.3-0.3-0.4-0.8-0.4-1.3c0-0.5,0.1-0.9,0.4-1.2c0.2-0.4,0.6-0.7,1.1-0.9c0.5-0.2,1.1-0.3,1.9-0.3
			c0.5,0,1,0.1,1.5,0.2c0.5,0.1,0.9,0.3,1.3,0.6l-0.4,1c-0.4-0.2-0.8-0.4-1.2-0.5c-0.4-0.1-0.8-0.2-1.2-0.2c-0.7,0-1.2,0.1-1.6,0.4
			c-0.4,0.3-0.5,0.6-0.5,1c0,0.3,0.1,0.5,0.3,0.7c0.2,0.2,0.5,0.3,0.7,0.4s0.7,0.2,1.2,0.3c0.7,0.2,1.2,0.3,1.6,0.5
			c0.4,0.2,0.7,0.4,1,0.7c0.3,0.3,0.4,0.8,0.4,1.3c0,0.5-0.1,0.9-0.4,1.2c-0.3,0.4-0.6,0.7-1.1,0.9c-0.5,0.2-1.1,0.3-1.9,0.3
			C-727.3,321.1-727.9,321-728.5,320.8z"/>
		<path d="M-718.5,313.4h-3v-1.1h7.3v1.1h-3v7.6h-1.2V313.4z"/>
		<path d="M-711.7,312.3h1.3v8.7h-1.3V312.3z"/>
		<path d="M-701,318.8h-4.7l-1,2.2h-1.3l4-8.7h1.2l4,8.7h-1.3L-701,318.8z M-701.4,317.8l-1.9-4.2l-1.9,4.2H-701.4z M-702.5,310h1.5
			l-2.1,1.6h-1.1L-702.5,310z"/>
		<path d="M-688.6,312.3v8.7h-1l-5.3-6.5v6.5h-1.3v-8.7h1l5.3,6.5v-6.5H-688.6z"/>
		<path d="M-848.1,284.8h-4.8v-3.5h14.1v3.5h-4.8v12.1h-4.5V284.8z"/>
		<path d="M-822.4,281.3v15.6h-4.5v-6.1h-6.1v6.1h-4.5v-15.6h4.5v5.9h6.1v-5.9H-822.4z"/>
		<path d="M-806.9,293.5v3.4h-12.7v-15.6h12.4v3.4h-8v2.6h7v3.3h-7v2.9H-806.9z"/>
		<path d="M-798.6,281.3h4.5v12.1h7.5v3.5h-12V281.3z"/>
		<path d="M-782,296.2c-1.3-0.7-2.4-1.7-3.1-2.9c-0.8-1.2-1.1-2.6-1.1-4.2s0.4-2.9,1.1-4.2c0.8-1.2,1.8-2.2,3.1-2.9
			c1.3-0.7,2.8-1.1,4.5-1.1c1.7,0,3.2,0.3,4.5,1c1.3,0.7,2.4,1.7,3.1,2.9c0.8,1.2,1.1,2.6,1.1,4.2c0,1.5-0.4,2.9-1.1,4.2
			c-0.8,1.2-1.8,2.2-3.1,2.9c-1.3,0.7-2.8,1-4.5,1C-779.1,297.2-780.6,296.9-782,296.2z M-775.3,293c0.6-0.4,1.2-0.9,1.5-1.6
			c0.4-0.7,0.6-1.5,0.6-2.3c0-0.9-0.2-1.7-0.6-2.3c-0.4-0.7-0.9-1.2-1.5-1.6c-0.6-0.4-1.4-0.6-2.2-0.6c-0.8,0-1.5,0.2-2.2,0.6
			c-0.6,0.4-1.2,0.9-1.5,1.6c-0.4,0.7-0.6,1.5-0.6,2.3c0,0.9,0.2,1.7,0.6,2.3c0.4,0.7,0.9,1.2,1.5,1.6c0.6,0.4,1.4,0.6,2.2,0.6
			C-776.7,293.6-775.9,293.4-775.3,293z"/>
		<path d="M-763.3,296.2c-1.3-0.7-2.3-1.7-3.1-2.9c-0.8-1.2-1.1-2.6-1.1-4.2c0-1.6,0.4-3,1.1-4.2c0.8-1.2,1.8-2.2,3.1-2.9
			c1.3-0.7,2.8-1,4.5-1c1.4,0,2.7,0.3,3.9,0.8c1.2,0.5,2.1,1.2,2.9,2.2l-2.8,2.5c-1-1.2-2.3-1.8-3.7-1.8c-0.9,0-1.6,0.2-2.3,0.6
			c-0.7,0.4-1.2,0.9-1.6,1.6c-0.4,0.7-0.6,1.5-0.6,2.3c0,0.9,0.2,1.7,0.6,2.3c0.4,0.7,0.9,1.2,1.6,1.6c0.7,0.4,1.4,0.6,2.3,0.6
			c1.5,0,2.7-0.6,3.7-1.8l2.8,2.5c-0.8,1-1.7,1.7-2.9,2.2c-1.2,0.5-2.5,0.8-3.9,0.8C-760.5,297.2-762,296.9-763.3,296.2z"/>
		<path d="M-740.1,293.9h-6.7l-1.2,3h-4.6l7-15.6h4.4l7,15.6h-4.6L-740.1,293.9z M-741.4,290.6l-2-5l-2,5H-741.4z"/>
		<path d="M-733.3,281.3h4.5v12.1h7.5v3.5h-12V281.3z"/>
		<path d="M-703.1,288.8h3.9v6.5c-0.9,0.6-1.9,1.1-3.1,1.5c-1.2,0.3-2.3,0.5-3.5,0.5c-1.7,0-3.1-0.3-4.5-1c-1.3-0.7-2.4-1.7-3.1-2.9
			c-0.8-1.2-1.1-2.6-1.1-4.2c0-1.6,0.4-3,1.1-4.2c0.8-1.2,1.8-2.2,3.1-2.9c1.3-0.7,2.8-1,4.5-1c1.5,0,2.8,0.2,4,0.7
			c1.2,0.5,2.1,1.2,2.9,2.1l-2.8,2.5c-1.1-1.2-2.3-1.7-3.8-1.7c-1.4,0-2.4,0.4-3.3,1.2c-0.8,0.8-1.2,1.9-1.2,3.2
			c0,0.9,0.2,1.6,0.6,2.3c0.4,0.7,0.9,1.2,1.6,1.6c0.7,0.4,1.5,0.6,2.3,0.6c0.9,0,1.7-0.2,2.4-0.5L-703.1,288.8L-703.1,288.8z"/>
		<path d="M-694.8,295.3c-1.3-1.3-1.9-3-1.9-5.4v-8.6h4.5v8.5c0,2.5,1,3.7,3,3.7c2,0,3-1.2,3-3.7v-8.5h4.4v8.6
			c0,2.3-0.7,4.1-1.9,5.4c-1.3,1.3-3.1,1.9-5.5,1.9C-691.7,297.2-693.5,296.6-694.8,295.3z"/>
		<path d="M-679.3,281.3h4.5v15.6h-4.5V281.3z"/>
		<path d="M-672,281.3h7.5c1.7,0,3.3,0.3,4.6,1c1.3,0.6,2.4,1.5,3.1,2.7c0.7,1.2,1.1,2.5,1.1,4.1c0,1.6-0.4,2.9-1.1,4.1
			c-0.7,1.2-1.8,2.1-3.1,2.7c-1.3,0.6-2.9,1-4.6,1h-7.5V281.3z M-664.7,293.4c1.4,0,2.4-0.4,3.3-1.1c0.8-0.8,1.2-1.8,1.2-3.1
			s-0.4-2.4-1.2-3.1c-0.8-0.8-1.9-1.1-3.3-1.1h-2.8v8.5L-664.7,293.4L-664.7,293.4z"/>
		<path d="M-641,293.5v3.4h-12.7v-15.6h12.4v3.4h-8v2.6h7v3.3h-7v2.9H-641z"/>
	</g>
</g>
</svg>
